<svg width="35" height="35" viewBox="0 0 35 35" fill="none" xmlns="http://www.w3.org/2000/svg">
<circle cx="17.5" cy="17.5" r="17" fill="white" stroke="#A7CF38"/>
<g clip-path="url(#clip0)">
<path d="M29.0874 10.8226L21.7554 7.15668C21.489 7.02365 21.1659 7.22391 21.1659 7.52102V23.8141C21.1659 23.9684 21.2531 24.1094 21.3911 24.1784L28.723 27.8443C28.9895 27.9775 29.3125 27.777 29.3125 27.48V11.187C29.3125 11.0327 29.2253 10.8916 29.0874 10.8226Z" fill="#BCE547"/>
<path d="M29.2954 11.0704C29.2632 10.9627 29.1879 10.873 29.0873 10.8228L21.7554 7.15682C21.5701 7.06417 21.3448 7.12535 21.2317 7.29913L15.9365 15.4457C15.8487 15.5807 15.8487 15.7547 15.9365 15.8897L21.2317 24.0363C21.307 24.152 21.4356 24.2216 21.5732 24.2216C21.5766 24.2216 21.5801 24.2216 21.5835 24.2215C21.7249 24.218 21.8544 24.1413 21.9255 24.0188L29.2574 11.3917C29.3139 11.2943 29.3276 11.1781 29.2954 11.0704Z" fill="#A7CF38"/>
<path d="M21.9156 23.5933L13.7691 10.9661C13.671 10.8143 13.4848 10.745 13.3117 10.7962C13.1384 10.8473 13.0195 11.0063 13.0195 11.187V19.7408C13.0195 19.8951 13.1066 20.0362 13.2446 20.1051L21.3912 24.1784C21.5479 24.2567 21.7459 24.2221 21.8673 24.096C21.9956 23.9627 22.0158 23.7487 21.9156 23.5933Z" fill="#539E31"/>
<path d="M13.6089 10.8227L6.27702 7.15672C6.01054 7.0236 5.6875 7.22395 5.6875 7.52106V23.8141C5.6875 23.9684 5.77466 24.1094 5.91263 24.1784L13.2445 27.8444C13.5111 27.9775 13.8341 27.777 13.8341 27.4801V11.187C13.8341 11.0327 13.7469 10.8917 13.6089 10.8227Z" fill="#6CB531"/>
</g>
<defs>
<clipPath id="clip0">
<rect width="23.625" height="23.625" fill="white" transform="translate(5.6875 5.6875)"/>
</clipPath>
</defs>
</svg>
