<svg width="35" height="35" viewBox="0 0 35 35" fill="none" xmlns="http://www.w3.org/2000/svg">
<g clip-path="url(#clip0)">
<path d="M17.5008 34.9997C27.1657 34.9997 35.0007 27.1647 35.0007 17.4998C35.0007 7.83495 27.1657 0 17.5008 0C7.83595 0 0.00100708 7.83495 0.00100708 17.4998C0.00100708 27.1647 7.83595 34.9997 17.5008 34.9997Z" fill="#55ACEE"/>
<path d="M28.2194 12.5765C27.4695 12.9091 26.6628 13.134 25.8168 13.2344C26.6806 12.7169 27.3435 11.898 27.6564 10.9207C26.8481 11.4002 25.9525 11.748 25.0001 11.9355C24.2371 11.1228 23.1499 10.615 21.9461 10.615C19.6364 10.615 17.7632 12.4883 17.7632 14.7979C17.7632 15.1258 17.8003 15.4449 17.872 15.7513C14.3956 15.5769 11.3132 13.9117 9.25 11.3802C8.89001 11.9979 8.6835 12.7169 8.6835 13.4834C8.6835 14.9343 9.42251 16.2151 10.5443 16.9651C9.85893 16.9435 9.2135 16.7554 8.6498 16.4413C8.64949 16.4591 8.64949 16.4769 8.64949 16.4943C8.64949 18.5211 10.092 20.2116 12.0052 20.5956C11.6545 20.6916 11.2842 20.7425 10.9033 20.7425C10.6332 20.7425 10.3715 20.7166 10.1163 20.6679C10.6485 22.3294 12.1929 23.5388 14.0238 23.5728C12.5919 24.6949 10.7885 25.3634 8.82824 25.3634C8.49133 25.3634 8.15755 25.3438 7.83093 25.3048C9.68112 26.4921 11.8804 27.1843 14.2425 27.1843C21.9364 27.1843 26.144 20.8105 26.144 15.2824C26.144 15.1012 26.14 14.9205 26.1319 14.7415C26.9498 14.1519 27.6589 13.4154 28.2194 12.5765Z" fill="#F1F2F2"/>
</g>
<defs>
<clipPath id="clip0">
<rect width="35" height="35" fill="white"/>
</clipPath>
</defs>
</svg>
